<svg id="visual" viewBox="0 0 1200 550" width="1200" height="550" xmlns="http://www.w3.org/2000/svg" xmlns:xlink="http://www.w3.org/1999/xlink" version="1.1"><rect x="0" y="0" width="1200" height="550" fill="#27374d"></rect><path d="M0 381L12.5 390C25 399 50 417 75 417.8C100 418.7 125 402.3 150 403.5C175 404.7 200 423.3 225 428.5C250 433.7 275 425.3 300 435C325 444.7 350 472.3 375 488.7C400 505 425 510 450 513C475 516 500 517 525 498.3C550 479.7 575 441.3 600 439C625 436.7 650 470.3 675 460.3C700 450.3 725 396.7 750 389.8C775 383 800 423 825 451.2C850 479.3 875 495.7 900 503C925 510.3 950 508.7 975 478.7C1000 448.7 1025 390.3 1050 374C1075 357.7 1100 383.3 1125 381.5C1150 379.7 1175 350.3 1187.5 335.7L1200 321L1200 551L1187.5 551C1175 551 1150 551 1125 551C1100 551 1075 551 1050 551C1025 551 1000 551 975 551C950 551 925 551 900 551C875 551 850 551 825 551C800 551 775 551 750 551C725 551 700 551 675 551C650 551 625 551 600 551C575 551 550 551 525 551C500 551 475 551 450 551C425 551 400 551 375 551C350 551 325 551 300 551C275 551 250 551 225 551C200 551 175 551 150 551C125 551 100 551 75 551C50 551 25 551 12.5 551L0 551Z" fill="#ff7f50" stroke-linecap="round" stroke-linejoin="miter"></path></svg>